<svg width="435" height="430" viewBox="0 0 435 430" fill="none" xmlns="http://www.w3.org/2000/svg">
<path d="M58.0215 412.816C49.7442 420.155 41.5522 425.701 33.4455 429.456L16.4215 414.736C17.9575 405.861 20.0482 398.096 22.6935 391.44C26.8748 380.603 32.2082 369.296 38.6935 357.52L52.7735 367.12C47.8242 375.909 44.3255 382.992 42.2775 388.368C39.2055 396.475 36.9868 403.643 35.6215 409.872C43.6428 406.203 53.9255 395.28 66.4695 377.104C70.2242 371.728 73.7655 366.139 77.0935 360.336L91.8135 369.936C84.3042 382.395 76.4535 393.232 68.2615 402.448C73.2962 402.192 79.1415 401.296 85.7975 399.76C92.4535 398.224 97.0188 397.072 99.4935 396.304L102.31 409.232C94.9708 413.157 85.4988 416.784 73.8935 420.112C70.7362 420.965 68.0482 421.605 65.8295 422.032L58.0215 412.816ZM128.717 353.552C126.754 351.504 125.773 349.029 125.773 346.128C125.773 343.227 126.754 340.795 128.717 338.832C130.765 336.784 133.239 335.76 136.141 335.76C139.042 335.76 141.474 336.784 143.437 338.832C145.485 340.795 146.509 343.227 146.509 346.128C146.509 349.029 145.485 351.504 143.437 353.552C141.474 355.515 139.042 356.496 136.141 356.496C133.239 356.496 130.765 355.515 128.717 353.552ZM109.389 409.872C118.093 407.227 128.546 402.704 140.749 396.304L143.437 409.232C135.159 414.608 125.175 419.856 113.485 424.976C109.559 426.683 105.719 428.176 101.965 429.456L87.2445 415.888C91.4258 404.453 98.9352 390.203 109.773 373.136C113.015 368.016 116.173 363.536 119.245 359.696L131.917 369.04C125.687 377.573 119.629 387.856 113.741 399.888C112.034 403.472 110.583 406.8 109.389 409.872ZM192.033 406.16C197.494 404.709 205.942 401.424 217.377 396.304L220.064 409.232C209.398 414.608 201.078 418.32 195.104 420.368C186.486 423.184 174.326 426.213 158.625 429.456L145.312 418.832L141.984 429.456L127.904 418.448C132.171 405.051 141.387 385.552 155.552 359.952C161.441 349.371 166.518 340.923 170.785 334.608L184.097 344.464C180.342 349.925 174.241 359.696 165.792 373.776C170.827 369.168 176.502 365.072 182.817 361.488L202.785 377.104C201.334 387.259 197.75 396.944 192.033 406.16ZM153.76 412.176C158.198 412.176 161.697 411.792 164.257 411.024C166.817 410.256 168.694 409.445 169.889 408.592C171.168 407.739 172.662 406.16 174.368 403.856C176.075 401.552 177.654 398.949 179.104 396.048C182.347 389.392 184.267 383.12 184.865 377.232C179.574 379.109 174.454 381.584 169.504 384.656C164.555 387.643 160.502 390.843 157.344 394.256C155.211 399.888 154.016 405.861 153.76 412.176ZM241.315 401.296C237.305 401.296 234.147 400.997 231.843 400.4C230.478 403.728 229.625 407.867 229.283 412.816C243.961 411.963 258.126 408.677 271.779 402.96C276.387 401.083 280.825 398.864 285.091 396.304L287.779 409.232C279.843 414.267 270.457 418.704 259.619 422.544C248.099 426.64 237.219 428.944 226.979 429.456L211.107 414.736C211.107 402.96 214.307 392.208 220.707 382.48C225.315 375.739 230.521 370.405 236.323 366.48C242.211 362.555 247.843 359.739 253.219 358.032L274.851 375.952C272.718 384.827 268.665 391.269 262.691 395.28C256.718 399.291 249.593 401.296 241.315 401.296ZM237.219 388.88C242.169 388.88 246.478 387.515 250.147 384.784C254.414 381.541 256.547 377.019 256.547 371.216C247.929 375.909 241.486 381.797 237.219 388.88ZM290.431 411.024C312.703 409.659 332.287 404.752 349.183 396.304L351.871 409.232C343.849 414.267 333.78 418.747 321.663 422.672C308.777 426.683 297.428 428.944 287.615 429.456L272.255 415.248C273.791 408.165 275.199 403.173 276.479 400.272C292.863 391.568 306.047 384.229 316.031 378.256C309.716 375.867 299.732 375.483 286.079 377.104L296.319 359.824C298.281 359.397 300.5 359.184 302.975 359.184C308.095 359.184 312.745 360.208 316.927 362.256C321.193 364.219 325.503 366.693 329.855 369.68L336.895 364.944L343.807 378.256C332.628 386.192 322.473 392.805 313.343 398.096C304.212 403.387 296.575 407.696 290.431 411.024ZM354.481 411.024C376.753 409.659 396.337 404.752 413.233 396.304L415.921 409.232C407.899 414.267 397.83 418.747 385.713 422.672C372.827 426.683 361.478 428.944 351.665 429.456L336.304 415.248C337.84 408.165 339.248 403.173 340.528 400.272C356.913 391.568 370.097 384.229 380.081 378.256C373.766 375.867 363.782 375.483 350.129 377.104L360.369 359.824C362.331 359.397 364.55 359.184 367.025 359.184C372.145 359.184 376.795 360.208 380.977 362.256C385.243 364.219 389.553 366.693 393.905 369.68L400.945 364.944L407.857 378.256C396.678 386.192 386.523 392.805 377.393 398.096C368.262 403.387 360.625 407.696 354.481 411.024Z" fill="url(#paint0_radial_346_3870)"/>
<path d="M58.0215 412.816C49.7442 420.155 41.5522 425.701 33.4455 429.456L16.4215 414.736C17.9575 405.861 20.0482 398.096 22.6935 391.44C26.8748 380.603 32.2082 369.296 38.6935 357.52L52.7735 367.12C47.8242 375.909 44.3255 382.992 42.2775 388.368C39.2055 396.475 36.9868 403.643 35.6215 409.872C43.6428 406.203 53.9255 395.28 66.4695 377.104C70.2242 371.728 73.7655 366.139 77.0935 360.336L91.8135 369.936C84.3042 382.395 76.4535 393.232 68.2615 402.448C73.2962 402.192 79.1415 401.296 85.7975 399.76C92.4535 398.224 97.0188 397.072 99.4935 396.304L102.31 409.232C94.9708 413.157 85.4988 416.784 73.8935 420.112C70.7362 420.965 68.0482 421.605 65.8295 422.032L58.0215 412.816ZM128.717 353.552C126.754 351.504 125.773 349.029 125.773 346.128C125.773 343.227 126.754 340.795 128.717 338.832C130.765 336.784 133.239 335.76 136.141 335.76C139.042 335.76 141.474 336.784 143.437 338.832C145.485 340.795 146.509 343.227 146.509 346.128C146.509 349.029 145.485 351.504 143.437 353.552C141.474 355.515 139.042 356.496 136.141 356.496C133.239 356.496 130.765 355.515 128.717 353.552ZM109.389 409.872C118.093 407.227 128.546 402.704 140.749 396.304L143.437 409.232C135.159 414.608 125.175 419.856 113.485 424.976C109.559 426.683 105.719 428.176 101.965 429.456L87.2445 415.888C91.4258 404.453 98.9352 390.203 109.773 373.136C113.015 368.016 116.173 363.536 119.245 359.696L131.917 369.04C125.687 377.573 119.629 387.856 113.741 399.888C112.034 403.472 110.583 406.8 109.389 409.872ZM192.033 406.16C197.494 404.709 205.942 401.424 217.377 396.304L220.064 409.232C209.398 414.608 201.078 418.32 195.104 420.368C186.486 423.184 174.326 426.213 158.625 429.456L145.312 418.832L141.984 429.456L127.904 418.448C132.171 405.051 141.387 385.552 155.552 359.952C161.441 349.371 166.518 340.923 170.785 334.608L184.097 344.464C180.342 349.925 174.241 359.696 165.792 373.776C170.827 369.168 176.502 365.072 182.817 361.488L202.785 377.104C201.334 387.259 197.75 396.944 192.033 406.16ZM153.76 412.176C158.198 412.176 161.697 411.792 164.257 411.024C166.817 410.256 168.694 409.445 169.889 408.592C171.168 407.739 172.662 406.16 174.368 403.856C176.075 401.552 177.654 398.949 179.104 396.048C182.347 389.392 184.267 383.12 184.865 377.232C179.574 379.109 174.454 381.584 169.504 384.656C164.555 387.643 160.502 390.843 157.344 394.256C155.211 399.888 154.016 405.861 153.76 412.176ZM241.315 401.296C237.305 401.296 234.147 400.997 231.843 400.4C230.478 403.728 229.625 407.867 229.283 412.816C243.961 411.963 258.126 408.677 271.779 402.96C276.387 401.083 280.825 398.864 285.091 396.304L287.779 409.232C279.843 414.267 270.457 418.704 259.619 422.544C248.099 426.64 237.219 428.944 226.979 429.456L211.107 414.736C211.107 402.96 214.307 392.208 220.707 382.48C225.315 375.739 230.521 370.405 236.323 366.48C242.211 362.555 247.843 359.739 253.219 358.032L274.851 375.952C272.718 384.827 268.665 391.269 262.691 395.28C256.718 399.291 249.593 401.296 241.315 401.296ZM237.219 388.88C242.169 388.88 246.478 387.515 250.147 384.784C254.414 381.541 256.547 377.019 256.547 371.216C247.929 375.909 241.486 381.797 237.219 388.88ZM290.431 411.024C312.703 409.659 332.287 404.752 349.183 396.304L351.871 409.232C343.849 414.267 333.78 418.747 321.663 422.672C308.777 426.683 297.428 428.944 287.615 429.456L272.255 415.248C273.791 408.165 275.199 403.173 276.479 400.272C292.863 391.568 306.047 384.229 316.031 378.256C309.716 375.867 299.732 375.483 286.079 377.104L296.319 359.824C298.281 359.397 300.5 359.184 302.975 359.184C308.095 359.184 312.745 360.208 316.927 362.256C321.193 364.219 325.503 366.693 329.855 369.68L336.895 364.944L343.807 378.256C332.628 386.192 322.473 392.805 313.343 398.096C304.212 403.387 296.575 407.696 290.431 411.024ZM354.481 411.024C376.753 409.659 396.337 404.752 413.233 396.304L415.921 409.232C407.899 414.267 397.83 418.747 385.713 422.672C372.827 426.683 361.478 428.944 351.665 429.456L336.304 415.248C337.84 408.165 339.248 403.173 340.528 400.272C356.913 391.568 370.097 384.229 380.081 378.256C373.766 375.867 363.782 375.483 350.129 377.104L360.369 359.824C362.331 359.397 364.55 359.184 367.025 359.184C372.145 359.184 376.795 360.208 380.977 362.256C385.243 364.219 389.553 366.693 393.905 369.68L400.945 364.944L407.857 378.256C396.678 386.192 386.523 392.805 377.393 398.096C368.262 403.387 360.625 407.696 354.481 411.024Z" fill="url(#paint1_radial_346_3870)"/>
<path d="M189.036 209.185V56.3777C189.036 44.8808 180.883 34.9988 169.596 32.8148L48.2132 9.3287C28.599 5.53358 13.2052 25.9643 22.2618 43.7716L137.594 270.539C139.675 274.631 142.886 278.04 146.846 280.363L201.284 312.283C211.627 318.348 224.858 315.849 232.277 306.431L297.943 223.071L412.312 101.869C423.3 90.2253 420.023 71.2916 405.76 64.0179L373.203 47.4138L325.351 28.5411C314.596 24.2993 302.346 28.3281 296.208 38.1253L189.036 209.185ZM189.036 209.185V209.185C187.481 226.372 209.305 234.974 219.894 221.348L241.719 193.268L303.449 88.909C307.737 81.6598 316.237 78.0364 324.436 79.9624V79.9624C339.677 83.5423 344.51 102.842 332.756 113.183L241.719 193.268L225.158 201.901C222.931 203.062 220.536 203.866 218.059 204.285L189.036 209.185Z" fill="url(#paint2_radial_346_3870)"/>
<defs>
<radialGradient id="paint0_radial_346_3870" cx="0" cy="0" r="1" gradientUnits="userSpaceOnUse" gradientTransform="translate(82.4889 326.5) rotate(25.9708) scale(263.751 1253.45)">
<stop stop-color="#5F5AE3"/>
<stop offset="0.375" stop-color="#4B47B0"/>
<stop offset="1" stop-color="#302D70"/>
</radialGradient>
<radialGradient id="paint1_radial_346_3870" cx="0" cy="0" r="1" gradientUnits="userSpaceOnUse" gradientTransform="translate(232.398 379.332) rotate(90) scale(47.8622 215.677)">
<stop stop-color="#5F5AE3"/>
<stop offset="0.375" stop-color="#4B47B0"/>
<stop offset="1" stop-color="#302D70"/>
</radialGradient>
<radialGradient id="paint2_radial_346_3870" cx="0" cy="0" r="1" gradientUnits="userSpaceOnUse" gradientTransform="translate(200.601 137.669) rotate(90) scale(176.503 239.559)">
<stop stop-color="#5B56D6"/>
<stop offset="1" stop-color="#302D70"/>
</radialGradient>
</defs>
</svg>
